<svg xmlns="http://www.w3.org/2000/svg" width="109.971" height="160" viewBox="0 0 109.971 160">
  <path id="question-mark" d="M56.932,0C31.989,0,15.833,10.22,3.149,28.446A7.508,7.508,0,0,0,4.767,38.719L18.248,48.94a7.5,7.5,0,0,0,10.392-1.3C36.467,37.838,42.273,32.191,54.5,32.191c9.614,0,21.505,6.187,21.505,15.51,0,7.048-5.818,10.667-15.31,15.989C49.626,69.9,34.977,77.62,34.977,96.941V100a7.5,7.5,0,0,0,7.5,7.5H65.124a7.5,7.5,0,0,0,7.5-7.5V98.2c0-13.394,39.146-13.952,39.146-50.2C111.771,20.7,83.458,0,56.932,0ZM53.8,116.706a21.647,21.647,0,1,0,21.647,21.647A21.672,21.672,0,0,0,53.8,116.706Z" transform="translate(-1.8)" fill="#b6f296"/>
</svg>
